# xmcd CD database file
#
# Track frame offsets:
#	150
#	28858
#	56670
#
# Disc length: 1019 seconds
#
# Revision: 0
# Processed by: cddbd v1.5.1PL0 Copyright (c) Steve Scherf et al.
# Submitted via: CDex 1.51
#
DISCID=2203f903
DTITLE=ion - BML
DYEAR=1900
DGENRE=未分類 (日本)
TTITLE0=ABSOLUTE -Another Trance Mix-
TTITLE1=RAINBOW AGEHA -Ryu*Medly Mix-
TTITLE2=CaptiveAte〜浄化〜 -Club Mix-
EXTD=
EXTT0=
EXTT1=
EXTT2=
PLAYORDER=
